<svg aria-hidden="true" style="position: absolute; width: 0; height: 0; overflow: hidden;" version="1.1" xmlns="http://www.w3.org/2000/svg" xmlns:xlink="http://www.w3.org/1999/xlink">
<defs>
<symbol id="icon-logo" viewBox="0 0 38 32">
<path d="M21.642 9.64l-0.724-0.571c-0.093-0.079-0.215-0.127-0.349-0.127-0.172 0-0.326 0.081-0.425 0.206l-0.001 0.001-10.022 11.897 0.154 0.177 2.483-2.366c-0.084-0.036-0.151-0.099-0.192-0.177l-0.001-0.002c-0.028-0.054-0.045-0.118-0.045-0.186 0-0.123 0.055-0.234 0.142-0.308l0.001-0c0.064-0.054 0.148-0.087 0.24-0.087 0.002 0 0.004 0 0.006 0h-0c0.080 0 0.158 0.027 0.223 0.076s0.112 0.117 0.135 0.196l0.001 0.003 3.273-3.137c0.048-0.040 0.11-0.064 0.177-0.064s0.13 0.024 0.178 0.065l-0-0 0.166 0.126c0.044 0.033 0.101 0.054 0.161 0.054 0.084 0 0.159-0.038 0.209-0.099l0-0 4.278-4.96c0.079-0.085 0.128-0.199 0.128-0.325 0-0.017-0.001-0.034-0.003-0.050l0 0.002c-0.014-0.14-0.085-0.261-0.19-0.341l-0.001-0.001z"></path>
<path d="M26.351 12.989c-2.065 1.537-4.483 2.742-7.097 3.477l-0.155 0.037c-2.323 0.638-5.022 1.072-7.8 1.208l-0.089 0.003c0.054 0.406 0.15 0.805 0.288 1.189 1.503 1.406 12.825-0.994 15.035-3.771 0.47-0.577-0.182-2.143-0.182-2.143zM12.907 18.857c-0.078-0-0.15-0.025-0.21-0.067l0.001 0.001c-0.062-0.043-0.109-0.102-0.137-0.172l-0.001-0.003c-0.018-0.044-0.028-0.094-0.028-0.148 0-0.107 0.042-0.204 0.109-0.275l-0 0c0.067-0.070 0.161-0.114 0.265-0.114 0.052 0 0.102 0.011 0.147 0.031l-0.002-0.001c0.069 0.029 0.127 0.078 0.169 0.143 0.042 0.063 0.063 0.138 0.063 0.215 0 0.001 0 0.003 0 0.005 0 0.105-0.041 0.201-0.109 0.272l0-0c-0.067 0.069-0.161 0.112-0.265 0.112-0.001 0-0.002 0-0.002 0h0zM2.211 12.166l0.089-0.394 1.437 0.337c0.119 0.226 0.192 0.475 0.216 0.731 0.008 0.076 0.013 0.164 0.013 0.254 0 0.198-0.023 0.39-0.066 0.575l0.003-0.017c-0.076 0.384-0.243 0.721-0.478 0.997l0.003-0.003c-0.222 0.26-0.51 0.457-0.838 0.568l-0.013 0.004c-0.178 0.059-0.382 0.093-0.595 0.093-0.16 0-0.315-0.019-0.464-0.055l0.013 0.003c-0.363-0.084-0.676-0.26-0.923-0.503l0 0c-0.249-0.238-0.432-0.542-0.523-0.884l-0.003-0.013c-0.047-0.171-0.074-0.368-0.074-0.571s0.027-0.4 0.078-0.587l-0.004 0.016c0.060-0.28 0.167-0.547 0.315-0.789 0.141-0.22 0.331-0.402 0.553-0.531l0.199 0.314c-0.193 0.124-0.353 0.282-0.476 0.467l-0.004 0.006c-0.126 0.191-0.211 0.408-0.25 0.635-0.069 0.295-0.063 0.605 0.017 0.897 0.074 0.278 0.222 0.529 0.426 0.726 0.202 0.202 0.459 0.349 0.747 0.415l0.010 0.002c0.277 0.080 0.569 0.080 0.846 0 0.265-0.090 0.503-0.25 0.691-0.463 0.193-0.23 0.326-0.507 0.387-0.806 0.035-0.132 0.055-0.284 0.055-0.441 0-0.234-0.044-0.457-0.125-0.663l0.004 0.012-1.266-0.331zM5.34 8.571l-1.289 1.777 0.553 1.023-0.254 0.354-2.045-3.857 0.238-0.337 4.162 0.926-0.259 0.354-1.105-0.24zM4.975 8.48l-2.211-0.514 1.106 2.051 1.105-1.537zM4.975 4.886l0.331-0.257 2.107 2.914 1.735-1.343 0.21 0.291-2.062 1.594-2.322-3.2zM8.458 2.503l0.37-0.171 1.459 3.303 1.974-0.926 0.143 0.331-2.344 1.103-1.603-3.64zM15.743 3.817l0.083 0.36-2.665 0.646-0.885-3.897 2.587-0.623 0.077 0.354-2.211 0.531 0.315 1.383 1.946-0.474 0.083 0.354-1.951 0.469 0.331 1.446 2.289-0.549zM19.541 3.96l-0.923-1.257c-0.103 0.006-0.206 0.006-0.309 0l-1.039 0.034 0.039 1.269h-0.409l-0.127-4 1.471-0.006c0.048-0.005 0.103-0.007 0.159-0.007 0.381 0 0.733 0.125 1.017 0.336l-0.005-0.003c0.144 0.119 0.259 0.271 0.337 0.443s0.119 0.36 0.117 0.551c0.016 0.282-0.055 0.563-0.205 0.8-0.156 0.223-0.375 0.392-0.632 0.483l-0.009 0.003 0.967 1.337-0.448 0.017zM19.154 2.080c0.099-0.094 0.177-0.21 0.225-0.341 0.038-0.098 0.060-0.212 0.060-0.331 0-0.027-0.001-0.054-0.003-0.081l0 0.003c0-0.005 0-0.012 0-0.018 0-0.14-0.030-0.273-0.085-0.392l0.002 0.006c-0.058-0.13-0.141-0.239-0.243-0.326l-0.001-0.001c-0.21-0.15-0.472-0.239-0.755-0.239-0.040 0-0.079 0.002-0.118 0.005l0.005-0-1.050 0.040 0.066 2 1.027-0.034c0.014 0.001 0.031 0.001 0.047 0.001 0.312 0 0.599-0.11 0.823-0.294l-0.002 0.002zM22.465 2.897l-0.199 1.366-0.403-0.063 0.205-1.343-1.145-2.857 0.431 0.069 0.978 2.434 1.658-2.017 0.387 0.086-1.913 2.326zM27.933 2.657l0.481 0.646-0.21 0.171-0.481-0.663-0.304 0.749-0.232-0.103 0.31-0.749-0.797 0.109v-0.274l0.785-0.091-0.486-0.646 0.215-0.171 0.426 0.651 0.299-0.754 0.237 0.103-0.282 0.766 0.796-0.114v0.28l-0.757 0.091zM29.779 7.263c-0.125-0.197-0.21-0.432-0.237-0.684l-0.001-0.007 0.326-0.149c0.025 0.226 0.097 0.445 0.21 0.64 0.123 0.219 0.285 0.413 0.475 0.571 0.197 0.195 0.449 0.321 0.719 0.36 0.097 0.009 0.196-0.006 0.286-0.045s0.171-0.1 0.233-0.178c0.080-0.091 0.129-0.211 0.129-0.343 0-0.016-0.001-0.032-0.002-0.048l0 0.002c-0.020-0.148-0.067-0.281-0.136-0.399l0.003 0.005c-0.118-0.199-0.229-0.365-0.349-0.525l0.011 0.016c-0.135-0.181-0.267-0.387-0.384-0.601l-0.014-0.027c-0.087-0.155-0.139-0.339-0.144-0.536l-0-0.001c0-0.211 0.077-0.416 0.216-0.571 0.118-0.147 0.273-0.26 0.452-0.324l0.007-0.002c0.2-0.060 0.413-0.060 0.613 0 0.258 0.087 0.497 0.227 0.702 0.411 0.17 0.146 0.321 0.315 0.447 0.503 0.118 0.174 0.206 0.367 0.26 0.571l-0.315 0.171c-0.060-0.204-0.143-0.383-0.248-0.545l0.005 0.008c-0.108-0.15-0.23-0.279-0.367-0.391l-0.004-0.003c-0.186-0.187-0.432-0.314-0.707-0.348l-0.006-0.001c-0.015-0.001-0.032-0.002-0.050-0.002-0.086 0-0.168 0.019-0.242 0.053l0.004-0.002c-0.093 0.043-0.171 0.106-0.23 0.184l-0.001 0.002c-0.081 0.088-0.13 0.205-0.13 0.335 0 0.019 0.001 0.038 0.003 0.056l-0-0.002c0.013 0.144 0.058 0.283 0.133 0.406 0.078 0.131 0.189 0.303 0.337 0.509 0.149 0.194 0.281 0.401 0.398 0.617 0.092 0.163 0.143 0.349 0.149 0.537 0 0.211-0.077 0.416-0.215 0.571-0.118 0.149-0.276 0.262-0.458 0.324l-0.007 0.002c-0.092 0.030-0.197 0.047-0.307 0.047s-0.215-0.017-0.314-0.049l0.007 0.002c-0.274-0.094-0.509-0.234-0.709-0.413l0.002 0.002c-0.221-0.199-0.405-0.434-0.546-0.695l-0.007-0.014zM35.34 8.097l-0.779-1.143 0.287-0.211 1.797 2.651-0.287 0.211-0.779-1.143-2.886 2.086-0.232-0.349 2.88-2.103zM34.102 12.794c0.103-0.355 0.295-0.657 0.551-0.89l0.002-0.001c0.257-0.238 0.569-0.401 0.907-0.474 0.134-0.033 0.289-0.052 0.448-0.052 0.211 0 0.415 0.034 0.605 0.096l-0.014-0.004c0.326 0.111 0.617 0.309 0.846 0.571 0.238 0.283 0.4 0.626 0.47 0.994 0.091 0.362 0.091 0.741 0 1.103-0.106 0.354-0.298 0.655-0.552 0.89l-0.001 0.001c-0.253 0.235-0.567 0.407-0.916 0.489l-0.014 0.003c-0.132 0.031-0.283 0.049-0.438 0.049-0.216 0-0.425-0.035-0.62-0.099l0.014 0.004c-0.34-0.113-0.626-0.311-0.843-0.569l-0.002-0.003c-0.23-0.273-0.395-0.607-0.468-0.975l-0.002-0.014c-0.036-0.152-0.057-0.326-0.057-0.505 0-0.219 0.031-0.431 0.089-0.631l-0.004 0.016zM34.826 14.611c0.185 0.217 0.424 0.377 0.691 0.463 0.275 0.083 0.566 0.093 0.846 0.029s0.541-0.2 0.757-0.394c0.204-0.194 0.354-0.44 0.437-0.714 0.041-0.146 0.064-0.315 0.064-0.488 0-0.141-0.015-0.278-0.044-0.41l0.002 0.013c-0.066-0.306-0.199-0.574-0.384-0.797l0.003 0.003c-0.187-0.212-0.428-0.373-0.702-0.46l-0.011-0.003c-0.128-0.036-0.274-0.057-0.426-0.057s-0.298 0.021-0.437 0.060l0.011-0.003c-0.295 0.060-0.55 0.2-0.752 0.395l0-0c-0.206 0.194-0.357 0.443-0.437 0.72-0.036 0.133-0.056 0.285-0.056 0.443s0.021 0.31 0.059 0.455l-0.003-0.012c0.060 0.283 0.192 0.546 0.381 0.76zM33.682 19.429l1.431-0.571c0-0.103 0.033-0.206 0.061-0.314l0.271-1.034-1.171-0.314 0.105-0.406 3.737 1.034-0.376 1.446c-0.087 0.432-0.317 0.799-0.638 1.060l-0.003 0.003c-0.188 0.138-0.425 0.221-0.68 0.221-0.133 0-0.26-0.022-0.378-0.063l0.008 0.002c-0.277-0.065-0.511-0.218-0.676-0.429l-0.002-0.003c-0.166-0.211-0.267-0.481-0.267-0.774v-0l-1.526 0.571 0.105-0.429zM35.533 19.589c0.065 0.121 0.153 0.228 0.258 0.314s0.227 0.147 0.357 0.183c0.077 0.022 0.166 0.035 0.258 0.035 0.191 0 0.369-0.056 0.519-0.152l-0.004 0.002c0.243-0.203 0.41-0.488 0.47-0.806l0.265-1.029-1.874-0.52-0.265 1.029c-0.046 0.133-0.072 0.287-0.072 0.447 0 0.178 0.033 0.348 0.093 0.506l-0.003-0.010zM31.697 23.109l-0.282-0.223 1.659-2.257 3.085 2.417-1.603 2.189-0.282-0.223 1.354-1.846-1.106-0.863-1.211 1.651-0.276-0.217 1.238-1.651-1.145-0.897-1.431 1.92zM30.403 27.663l-0.79 0.046v-0.274l0.79-0.006-0.426-0.68 0.215-0.143 0.421 0.686 0.343-0.766 0.237 0.131-0.375 0.72 0.79-0.046v0.28h-0.802l0.426 0.68-0.215 0.143-0.42-0.686-0.365 0.743-0.232-0.137 0.403-0.691zM23.217 27.206l0.669 0.383c0.113-0.223 0.269-0.418 0.459-0.574 0.181-0.149 0.398-0.263 0.634-0.326l0.012-0.003c0.155-0.052 0.334-0.082 0.52-0.082 0.056 0 0.112 0.003 0.167 0.008l-0.007-0.001c0.199 0.015 0.39 0.087 0.553 0.206 0.147 0.114 0.255 0.274 0.309 0.457 0.067 0.226 0.055 0.469-0.033 0.686-0.138 0.295-0.326 0.564-0.553 0.794 0.182 0.101 0.351 0.226 0.503 0.371 0.105 0.111 0.182 0.246 0.227 0.394 0.014 0.056 0.022 0.12 0.022 0.185 0 0.183-0.063 0.351-0.167 0.485l0.001-0.002c-0.144 0.215-0.359 0.372-0.611 0.438l-0.007 0.002c-0.102 0.041-0.219 0.065-0.343 0.065s-0.241-0.024-0.349-0.068l0.006 0.002c-0.101-0.046-0.186-0.112-0.253-0.193l-0.001-0.001c-0.067-0.081-0.116-0.179-0.142-0.287l-0.001-0.005c-0.022-0.070-0.035-0.151-0.035-0.235 0-0.122 0.027-0.238 0.076-0.341l-0.002 0.005c0.133-0.27 0.297-0.502 0.492-0.704l-0.001 0.001-1.331-0.766c-0.031 0.157-0.049 0.338-0.049 0.523 0 0.104 0.006 0.206 0.017 0.306l-0.001-0.012h-0.337c-0.004-0.057-0.007-0.124-0.007-0.192 0-0.286 0.043-0.562 0.122-0.823l-0.005 0.020-0.696-0.4 0.143-0.32zM24.179 27.777l1.465 0.84c0.192-0.19 0.351-0.411 0.47-0.657 0.029-0.076 0.046-0.165 0.046-0.257s-0.017-0.181-0.047-0.262l0.002 0.005c-0.026-0.103-0.075-0.192-0.142-0.266l0 0.001c-0.066-0.073-0.148-0.129-0.242-0.162l-0.004-0.001c-0.105-0.038-0.227-0.060-0.354-0.060s-0.248 0.022-0.361 0.062l0.007-0.002c-0.187 0.051-0.362 0.144-0.511 0.273s-0.269 0.289-0.351 0.47l0.022 0.017zM26.258 30.063c0.044-0.075 0.069-0.165 0.069-0.261 0-0.058-0.009-0.113-0.027-0.165l0.001 0.004c-0.036-0.117-0.097-0.217-0.177-0.297v0c-0.134-0.117-0.284-0.222-0.445-0.308l-0.013-0.006c-0.164 0.167-0.308 0.355-0.43 0.558l-0.008 0.014c-0.041 0.078-0.065 0.17-0.065 0.268 0 0.055 0.008 0.108 0.022 0.159l-0.001-0.004c0.019 0.069 0.050 0.128 0.091 0.179l-0.001-0.001c0.041 0.051 0.092 0.093 0.151 0.123l0.003 0.001c0.141 0.055 0.295 0.055 0.437 0 0.15-0.042 0.281-0.137 0.37-0.269l0.022 0.006zM16.479 31.611l0.077-4h0.393l-0.061 3.2 1.57-2.663h0.193l1.471 2.709 0.055-3.183h0.393l-0.072 4h-0.337l-1.625-2.989-1.719 2.931-0.337-0.006zM14.555 27.429c0.253 0.249 0.434 0.566 0.523 0.915 0.039 0.149 0.062 0.32 0.062 0.496 0 0.202-0.030 0.397-0.085 0.581l0.004-0.014c-0.095 0.366-0.278 0.68-0.526 0.932l0-0c-0.246 0.249-0.554 0.423-0.89 0.503-0.142 0.035-0.305 0.054-0.472 0.054-0.214 0-0.421-0.032-0.615-0.093l0.015 0.004c-0.364-0.095-0.678-0.276-0.929-0.52l0 0c-0.244-0.241-0.423-0.547-0.511-0.889l-0.003-0.013c-0.038-0.152-0.059-0.326-0.059-0.506 0-0.205 0.028-0.404 0.081-0.592l-0.004 0.015c0.097-0.353 0.281-0.673 0.535-0.93 0.241-0.249 0.543-0.427 0.873-0.514 0.141-0.034 0.303-0.054 0.469-0.054 0.213 0 0.419 0.032 0.612 0.092l-0.015-0.004c0.368 0.099 0.683 0.286 0.934 0.537v0zM12.67 27.229c-0.282 0.070-0.525 0.214-0.713 0.411l-0.001 0.001c-0.203 0.21-0.349 0.473-0.42 0.76-0.077 0.286-0.077 0.589 0 0.874 0.065 0.278 0.206 0.531 0.403 0.731 0.209 0.21 0.465 0.362 0.746 0.44 0.281 0.074 0.576 0.074 0.857 0 0.27-0.069 0.518-0.211 0.719-0.411 0.202-0.21 0.347-0.473 0.42-0.76 0.037-0.132 0.058-0.284 0.058-0.44s-0.021-0.308-0.061-0.452l0.003 0.012c-0.074-0.287-0.217-0.534-0.409-0.732l0 0c-0.202-0.204-0.456-0.355-0.741-0.432l-0.011-0.003c-0.128-0.038-0.274-0.060-0.426-0.060s-0.298 0.022-0.437 0.062l0.011-0.003zM8.486 24.571l0.149 1.571c0.095 0.042 0.187 0.090 0.277 0.143l0.901 0.537 0.608-1.109 0.359 0.211-1.935 3.446-1.26-0.749c-0.375-0.199-0.666-0.517-0.825-0.902l-0.004-0.012c-0.043-0.123-0.067-0.264-0.067-0.412 0-0.249 0.070-0.482 0.192-0.68l-0.003 0.006c0.129-0.249 0.329-0.446 0.573-0.568l0.007-0.003c0.252-0.108 0.531-0.13 0.796-0.063l-0.16-1.68 0.392 0.263zM7.855 26.377c-0.137 0.036-0.257 0.097-0.36 0.179l0.002-0.002c-0.107 0.084-0.196 0.189-0.263 0.309-0.083 0.147-0.132 0.323-0.132 0.51 0 0.103 0.015 0.203 0.043 0.297l-0.002-0.007c0.129 0.296 0.354 0.536 0.635 0.68l0.89 0.531 0.968-1.714-0.89-0.531c-0.224-0.176-0.51-0.282-0.82-0.282-0.025 0-0.049 0.001-0.073 0.002l0.003-0v0.029zM5.213 21.891l0.249-0.257 1.907 2.029-2.764 2.789-1.841-1.966 0.254-0.257 1.565 1.663 0.945-0.989-1.371-1.474 0.266-0.263 1.399 1.486 1.028-1.034-1.637-1.726zM1.106 19.646l0.133-0.789 0.26 0.040-0.15 0.811 0.735-0.28 0.089 0.251-0.746 0.263 0.614 0.537-0.177 0.206-0.591-0.571-0.138 0.811-0.265-0.051 0.154-0.811-0.741 0.274-0.083-0.223 0.741-0.269-0.614-0.531 0.182-0.206 0.597 0.537z"></path>
</symbol>
<symbol id="icon-facebook" viewBox="0 0 32 32">
<path d="M21.328 5.312h2.923v-5.088c-1.232-0.143-2.66-0.224-4.108-0.224-0.052 0-0.104 0-0.156 0l0.008-0c-4.213 0-7.099 2.65-7.099 7.52v4.48h-4.646v5.688h4.646v14.312h5.699v-14.31h4.459l0.707-5.688h-5.168v-3.922c0-1.643 0.443-2.768 2.734-2.768z"></path>
</symbol>
<symbol id="icon-instagram" viewBox="0 0 32 32">
<path d="M31.968 9.408c-0.074-1.701-0.349-2.869-0.744-3.882-0.423-1.111-1.052-2.058-1.847-2.837l-0.001-0.001c-0.78-0.792-1.724-1.419-2.778-1.827l-0.054-0.018c-1.021-0.394-2.182-0.667-3.883-0.742-1.712-0.082-2.256-0.101-6.602-0.101-4.344 0-4.888 0.019-6.595 0.094-1.701 0.074-2.869 0.349-3.88 0.742-1.112 0.424-2.060 1.054-2.839 1.85l-0.001 0.001c-0.791 0.78-1.418 1.724-1.825 2.778l-0.018 0.054c-0.395 1.019-0.669 2.181-0.744 3.882-0.082 1.712-0.101 2.256-0.101 6.602 0 4.344 0.019 4.888 0.094 6.595 0.075 1.701 0.35 2.869 0.744 3.882 0.426 1.11 1.055 2.057 1.849 2.837l0.001 0.001c0.8 0.813 1.77 1.443 2.832 1.843 1.019 0.395 2.182 0.67 3.882 0.744 1.707 0.075 2.251 0.094 6.595 0.094 4.346 0 4.89-0.019 6.595-0.094 1.701-0.074 2.869-0.349 3.882-0.742 2.157-0.85 3.833-2.526 4.664-4.628l0.019-0.055c0.394-1.019 0.669-2.182 0.744-3.882 0.075-1.707 0.093-2.251 0.093-6.595s-0.006-4.888-0.080-6.595zM29.088 22.474c-0.070 1.563-0.333 2.406-0.552 2.97-0.551 1.399-1.638 2.486-3.001 3.024l-0.036 0.013c-0.563 0.219-1.413 0.482-2.97 0.55-1.688 0.075-2.194 0.094-6.464 0.094-4.269 0-4.782-0.019-6.464-0.094-1.563-0.069-2.406-0.331-2.97-0.55-0.721-0.269-1.334-0.676-1.836-1.192l-0.001-0.001c-0.517-0.503-0.924-1.117-1.184-1.803l-0.011-0.034c-0.218-0.563-0.48-1.413-0.549-2.97-0.075-1.688-0.094-2.195-0.094-6.464 0-4.27 0.019-4.784 0.094-6.464 0.069-1.563 0.331-2.406 0.549-2.97 0.269-0.722 0.678-1.337 1.198-1.837l0.002-0.002c0.504-0.517 1.119-0.923 1.806-1.182l0.034-0.011c0.56-0.219 1.411-0.48 2.968-0.55 1.688-0.074 2.194-0.093 6.464-0.093 4.275 0 4.782 0.019 6.464 0.093 1.562 0.069 2.406 0.331 2.97 0.55 0.693 0.256 1.325 0.662 1.837 1.194 0.531 0.52 0.938 1.144 1.195 1.84 0.218 0.56 0.48 1.411 0.549 2.968 0.075 1.688 0.094 2.194 0.094 6.464 0 4.269-0.019 4.768-0.094 6.458z"></path>
<path d="M16.059 7.782c-4.539 0.002-8.218 3.682-8.219 8.221v0c0 0 0 0.001 0 0.002 0 4.541 3.681 8.222 8.222 8.222s8.222-3.681 8.222-8.222c0-4.541-3.681-8.222-8.222-8.222-0.001 0-0.001 0-0.002 0h0zM16.059 21.334c-2.945-0-5.332-2.388-5.332-5.333s2.388-5.333 5.333-5.333c0 0 0.001 0 0.001 0h-0c2.946 0 5.334 2.388 5.334 5.334s-2.388 5.334-5.334 5.334v0zM26.525 7.458c0 1.060-0.86 1.92-1.92 1.92s-1.92-0.86-1.92-1.92v0c0-1.060 0.86-1.92 1.92-1.92s1.92 0.86 1.92 1.92v0z"></path>
</symbol>
<symbol id="icon-linkedin" viewBox="0 0 32 32">
<path d="M31.992 32h0.008v-11.738c0-5.741-1.237-10.163-7.947-10.163-3.227 0-5.392 1.77-6.277 3.45h-0.093v-2.914h-6.365v21.363h6.627v-10.578c0-2.786 0.528-5.48 3.978-5.48 3.398 0 3.448 3.179 3.448 5.658v10.402h6.621zM0.528 10.635h6.635v21.365h-6.635v-21.365zM3.843 0c-2.123 0-3.843 1.721-3.843 3.843v0c0 2.12 1.722 3.878 3.843 3.878 2.12 0 3.842-1.757 3.842-3.878s-1.72-3.841-3.841-3.843h-0z"></path>
</symbol>
<symbol id="icon-twitter" viewBox="0 0 32 32">
<path d="M32 6.078c-1.1 0.493-2.376 0.857-3.713 1.028l-0.068 0.007c1.36-0.817 2.382-2.078 2.873-3.579l0.013-0.046c-1.197 0.722-2.591 1.273-4.076 1.573l-0.084 0.014c-1.2-1.279-2.9-2.076-4.787-2.076-3.622 0-6.558 2.936-6.558 6.558 0 0.001 0 0.003 0 0.004v-0c0 0.52 0.043 1.021 0.152 1.496-5.454-0.266-10.28-2.88-13.522-6.861-0.564 0.949-0.899 2.092-0.902 3.313v0.001c0 2.272 1.171 4.286 2.914 5.451-1.091-0.030-2.107-0.325-2.994-0.823l0.033 0.017v0.072c0.003 3.165 2.236 5.807 5.213 6.44l0.043 0.008c-0.499 0.136-1.071 0.215-1.662 0.215-0.020 0-0.041-0-0.061-0l0.003 0c-0.419 0-0.843-0.024-1.242-0.112 0.85 2.598 3.261 4.509 6.13 4.57-2.215 1.746-5.045 2.8-8.122 2.8-0.004 0-0.008 0-0.013 0h0.001c-0.018 0-0.040 0-0.062 0-0.531 0-1.055-0.034-1.569-0.099l0.061 0.006c2.826 1.846 6.287 2.944 10.004 2.944 0.021 0 0.042-0 0.063-0h-0.003c12.072 0 18.672-10 18.672-18.669 0-0.288-0.010-0.57-0.024-0.848 1.299-0.936 2.39-2.064 3.258-3.355l0.030-0.047z"></path>
</symbol>
<symbol id="icon-phone" viewBox="0 0 32 32">
<path fill="none" stroke="#9da4bd" style="stroke: var(--color1, #9da4bd)" stroke-linejoin="round" stroke-linecap="round" stroke-miterlimit="4" stroke-width="1.3333" d="M26.667 21.337v3.217c0 0.003 0 0.007 0 0.010 0 1.185-0.96 2.145-2.145 2.145-0.068 0-0.135-0.003-0.202-0.009l0.009 0.001c-3.481-0.388-6.626-1.563-9.338-3.343l0.081 0.050c-2.608-1.674-4.762-3.828-6.386-6.353l-0.050-0.083c-1.736-2.644-2.912-5.804-3.285-9.205l-0.008-0.095c-0.006-0.058-0.009-0.125-0.009-0.193 0-1.185 0.96-2.145 2.145-2.145h3.219c0.006-0 0.013-0 0.020-0 1.079 0 1.972 0.797 2.123 1.834l0.001 0.012c0.136 1.029 0.387 2.040 0.751 3.013 0.295 0.784 0.107 1.668-0.483 2.264l-1.363 1.361c1.555 2.7 3.736 4.881 6.353 6.392l0.083 0.044 1.363-1.361c0.388-0.383 0.92-0.619 1.509-0.619 0.271 0 0.53 0.050 0.769 0.142l-0.015-0.005c0.973 0.363 1.984 0.613 3.013 0.751 1.050 0.151 1.847 1.045 1.847 2.125 0 0.019-0 0.037-0.001 0.056l0-0.003z"></path>
</symbol>
<symbol id="icon-map" viewBox="0 0 32 32">
<path fill="none" stroke="#9da4bd" style="stroke: var(--color1, #9da4bd)" stroke-linejoin="round" stroke-linecap="round" stroke-miterlimit="4" stroke-width="1.3333" d="M26.667 13.819c0 7.635-10.667 14.181-10.667 14.181s-10.667-6.547-10.667-14.181c0-5.423 4.776-9.819 10.667-9.819s10.667 4.396 10.667 9.819v0z"></path>
<path fill="none" stroke="#9da4bd" style="stroke: var(--color1, #9da4bd)" stroke-linejoin="round" stroke-linecap="round" stroke-miterlimit="4" stroke-width="1.3333" d="M16 18.667c2.209 0 4-1.791 4-4s-1.791-4-4-4v0c-2.209 0-4 1.791-4 4s1.791 4 4 4v0z"></path>
</symbol>
<symbol id="icon-mail" viewBox="0 0 32 32">
<path fill="none" stroke="#9da4bd" style="stroke: var(--color1, #9da4bd)" stroke-linejoin="round" stroke-linecap="round" stroke-miterlimit="4" stroke-width="1.3333" d="M6.4 6.667h19.2c1.32 0 2.4 1.049 2.4 2.333v14c0 1.283-1.080 2.333-2.4 2.333h-19.2c-1.32 0-2.4-1.051-2.4-2.333v-14c0-1.284 1.080-2.333 2.4-2.333z"></path>
<path fill="none" stroke="#9da4bd" style="stroke: var(--color1, #9da4bd)" stroke-linejoin="round" stroke-linecap="round" stroke-miterlimit="4" stroke-width="1.3333" d="M26.667 9.333l-10.667 8-10.667-8"></path>
</symbol>
</defs>
</svg>
